<svg xmlns="http://www.w3.org/2000/svg" width="90" height="96"><g fill="#1A1919" fill-rule="evenodd"><path d="M67.8 56.721H35.524v5.736h34.718l3.294-3.452v-9.143H67.8z"/><path d="M56.183 68.194H33.93V50.889h22.252v4.24h5.736v-9.976H33.93V41.01h-5.736v30.105l2.864 2.815h27.99l2.87-2.974v-6.91h-5.736zM67.8 32.016v1.655h-4.26v5.737h4.26v5.745h5.736V32.016z"/><path d="M19.483 33.671l-2.76 3.137V59.6l3.131 2.857h6.747V56.72h-4.143V39.407h32.107v-5.736zm36.703 5.737h5.733v-.003h-5.733z"/><path d="M56.183 28.172H33.93v3.906h-5.736v-3.906h-5.737v-5.736H58.82l3.099 3.225v13.744h-5.733zm-47.398.353l.94-1.64c.441-.773.437-1.176-.335-1.618-.7-.401-1.017-.158-1.448.596l-.94 1.641 1.783 1.021zM5.12 21.963l1.056.605-1.925 3.362 1.694.97 1.184-2.067c.71-1.242 1.705-1.58 2.982-.848 1.269.726 1.618 1.845.922 3.06l-1.925 3.362-6.644-3.805 2.656-4.64zm10.428-7.304l2.727-2.317.788.927-2.727 2.317 1.33 1.566 2.86-2.429.787.927-3.981 3.382-4.958-5.836 3.982-3.382.788.927-2.86 2.43zM30.043 2.673l.456 1.16-3.301 1.297 2.343 5.966-1.37.538-2.8-7.127zm13.361 4.315c1.533-.042 1.78-.355 1.716-2.716-.067-2.473-.379-2.66-1.86-2.619-1.534.042-1.774.242-1.707 2.716.066 2.412.318 2.66 1.851 2.619M43.225.406c2.576-.07 3.303.729 3.383 3.662.093 3.403-.605 4.097-3.17 4.167-2.76.075-3.289-.596-3.381-3.989-.08-2.933.572-3.77 3.168-3.84m14.259 5.216l1.736.612c.877.309 1.26.27 1.565-.598.241-.685.007-.973-.668-1.21l-1.967-.694-.666 1.89zm-1.07 3.038l1.735.611c.916.323 1.451.251 1.733-.549.275-.781.025-1.086-.775-1.368l-1.987-.7-.707 2.006zm.751-6.565L60.868 3.4c1.292.455 1.826 1.25 1.377 2.523-.296.839-.812 1.35-1.616 1.295l-.017.048c.727.397.948 1.125.621 2.051-.448 1.273-1.396 1.84-2.794 1.347L54.62 9.318l2.545-7.223zM70.6 16.565c1.166.995 1.56.927 3.092-.87 1.605-1.882 1.498-2.229.37-3.19-1.167-.996-1.48-1.007-3.085.875-1.565 1.836-1.544 2.19-.377 3.185m4.27-5.01c1.961 1.672 1.967 2.752.064 4.984-2.21 2.59-3.191 2.64-5.144.975-2.1-1.79-2.044-2.644.158-5.226 1.903-2.232 2.947-2.417 4.923-.732m7.107 13.357l1.76 3.116-1.06.598-1.76-3.116-1.79 1.01 1.845 3.268-1.06.598-2.567-4.55 6.669-3.764 2.568 4.55-1.06.598-1.844-3.268zM4.156 64.555l-.425.146c-1.662.571-2.52-.009-3.282-2.222-.817-2.377-.286-3.316 2.787-4.373 2.493-.857 3.779-.607 4.6 1.78.824 2.396.152 3.178-1.47 3.866L5.9 62.399c1.099-.453 1.192-.842.756-2.108-.445-1.295-.925-1.465-3.1-.717-2.077.714-2.38 1.186-1.934 2.48.435 1.267.8 1.574 1.612 1.294l.454-.156.468 1.363zm2.949 8.355c.869 1.263 1.266 1.3 3.212-.038 2.038-1.4 2.024-1.764 1.185-2.985-.87-1.264-1.168-1.356-3.207.046-1.988 1.367-2.06 1.714-1.19 2.977m5.424-3.73c1.46 2.123 1.185 3.167-1.232 4.83-2.805 1.928-3.767 1.72-5.22-.394-1.564-2.273-1.289-3.083 1.508-5.006 2.417-1.662 3.473-1.57 4.944.57m2.883 12.874c1.175.984 1.567.914 3.084-.896 1.589-1.895 1.478-2.242.342-3.193-1.174-.985-1.487-.994-3.076.902-1.549 1.849-1.525 2.202-.35 3.187m4.227-5.045c1.974 1.655 1.99 2.734.106 4.982-2.187 2.609-3.168 2.666-5.134 1.018-2.115-1.772-2.067-2.625.113-5.225 1.884-2.249 2.926-2.442 4.915-.775m4.7 10.859l1.718.788c.809.37 1.21.33 1.58-.479.337-.733.066-1.026-.724-1.389l-1.718-.787-.856 1.867zm6.204-4.24l-.507 1.107-3.52-1.615-.815 1.775 2.165.993c1.301.596 1.727 1.556 1.114 2.893-.61 1.329-1.692 1.777-2.965 1.194l-3.52-1.615 3.19-6.958 4.858 2.227zm5.277 8.275l3.13.326.664-6.374 1.463.152-.663 6.374 3.131.326.664-6.374 1.463.152-.663 6.374.68.071-.311 2.999-1.362-.142.183-1.758-9.973-1.039.793-7.614 1.464.153zm16.435-3.253l3.5-.733.25 1.19-3.5.733.42 2.01 3.671-.768.25 1.19-5.112 1.071-1.57-7.492 5.112-1.071.25 1.19-3.671.77zm14.781-3.595l.2.402c.785 1.574.322 2.501-1.774 3.545-2.25 1.12-3.25.717-4.7-2.192-1.176-2.36-1.096-3.668 1.164-4.793 2.268-1.13 3.132-.567 4.026.952l-1.281.638c-.593-1.03-.99-1.071-2.189-.474-1.226.61-1.332 1.109-.307 3.167.98 1.967 1.487 2.206 2.713 1.595 1.199-.597 1.455-.999 1.073-1.767l-.215-.43 1.29-.643zm8.626-3.088l-1.113.964-4.197-4.843-1.7 1.473-.815-.942 4.51-3.91.817.943-1.7 1.473zm5.378-7.635l1.046-1.512c.554-.798.625-1.333-.072-1.816-.68-.472-1.04-.31-1.524.387l-1.199 1.73 1.748 1.211zM78.392 72.5l1.047-1.513c.53-.765.593-1.144-.163-1.667-.597-.413-.937-.264-1.344.325l-1.187 1.714 1.647 1.14zm-3.485-.624l2.234-3.226c.78-1.126 1.687-1.43 2.796-.662.731.506 1.088 1.139.823 1.9l.042.028c.575-.596 1.335-.616 2.141-.058 1.11.768 1.405 1.83.562 3.05L81.2 76.234l-6.293-4.359zm12.645-9.743c.503-1.449.298-1.79-1.933-2.566-2.337-.813-2.621-.587-3.108.814-.504 1.448-.4 1.743 1.936 2.556 2.28.792 2.601.645 3.105-.804m-6.22-2.162c.847-2.434 1.851-2.831 4.623-1.868 3.216 1.118 3.618 2.016 2.775 4.44-.907 2.607-1.721 2.865-4.927 1.75-2.772-.963-3.323-1.87-2.47-4.322m4.227-16.668a1.475 1.475 0 112.948 0 1.475 1.475 0 01-2.949 0m-85.155 0a1.475 1.475 0 112.95 0 1.475 1.475 0 01-2.95 0"/></g></svg>