<?xml version="1.0" encoding="UTF-8" standalone="no"?><!DOCTYPE svg PUBLIC "-//W3C//DTD SVG 1.1//EN" "http://www.w3.org/Graphics/SVG/1.1/DTD/svg11.dtd"><svg width="100%" height="100%" viewBox="0 0 177 127" version="1.1" xmlns="http://www.w3.org/2000/svg" xmlns:xlink="http://www.w3.org/1999/xlink" xml:space="preserve" xmlns:serif="http://www.serif.com/" style="fill-rule:evenodd;clip-rule:evenodd;stroke-linejoin:round;stroke-miterlimit:2;"><path d="M8.026,1.505l-0.003,0.004c-6.965,3.256 -9.964,11.544 -6.708,18.506c4.186,8.931 20.05,16.676 23.495,18.289c-0.378,-1.403 -1.487,-5.74 -2.214,-10.961c-1.19,-8.534 -0.945,-15.106 1.054,-19.376c0.38,-0.813 0.839,-1.574 1.353,-2.288c-2.658,-3.498 -6.796,-5.49 -11.083,-5.49c-1.978,0 -3.986,0.423 -5.894,1.316Zm0.493,15.138c-1.393,-2.985 -0.11,-6.536 2.879,-7.937c2.98,-1.394 6.539,-0.109 7.935,2.875c1.393,2.986 0.11,6.54 -2.875,7.939c-0.818,0.382 -1.679,0.563 -2.526,0.563c-2.246,0 -4.398,-1.272 -5.413,-3.44Z" style="fill:url(#_Linear1);fill-rule:nonzero;"/><path d="M25.371,6.353c-0.345,0.534 -0.671,1.087 -0.954,1.679c-4.705,10.067 1.191,30.462 1.191,30.462c0,0 19.363,-8.568 24.076,-18.639c3.262,-6.969 0.26,-15.277 -6.719,-18.537l-0.001,-0.002c-1.912,-0.896 -3.915,-1.316 -5.893,-1.316c-4.629,0 -9.09,2.321 -11.7,6.353Zm9.148,13.009c-2.996,-1.402 -4.278,-4.965 -2.887,-7.949c1.02,-2.172 3.174,-3.447 5.426,-3.447c0.851,0 1.705,0.178 2.529,0.566c2.99,1.401 4.277,4.953 2.883,7.949c-1.021,2.175 -3.173,3.448 -5.42,3.448c-0.852,0 -1.716,-0.185 -2.531,-0.567Z" style="fill:url(#_Linear2);fill-rule:nonzero;"/><path d="M30.301,50.229l-0.045,0l-4.788,5.514l-0.045,0l-4.701,-5.514l-0.043,0l0,12.322l-3.074,0l0,-15.64l3.58,0l4.327,5.075l4.306,-5.075l3.558,0l0,15.64l-3.075,0l0,-12.322Z" style="fill-rule:nonzero;"/><path d="M35.669,54.732c0,-4.724 3.383,-8.083 8.324,-8.083c5.074,0 8.369,3.404 8.369,8.083c0,4.743 -3.316,8.083 -8.347,8.083c-4.831,0 -8.346,-3.273 -8.346,-8.083m3.185,0c0,2.899 1.934,5.688 5.139,5.688c3.295,0 5.184,-2.789 5.184,-5.688c0,-2.988 -1.889,-5.69 -5.162,-5.69c-3.272,0 -5.161,2.702 -5.161,5.69" style="fill-rule:nonzero;"/><path d="M54.202,54.754c0,-5.119 3.801,-8.105 8.766,-8.105c1.339,0 2.899,0.262 4.194,0.703l0,2.767c-1.166,-0.66 -2.769,-1.077 -4.043,-1.077c-3.337,0 -5.731,2.439 -5.731,5.712c0,3.448 2.591,5.666 5.841,5.666c1.231,0 2.946,-0.417 3.955,-0.9l0,2.657c-1.164,0.396 -2.701,0.638 -4.195,0.638c-4.57,0 -8.787,-2.636 -8.787,-8.061" style="fill-rule:nonzero;"/><path d="M72.579,54.424l-0.045,0l0,8.127l-3.074,0l0,-15.64l3.074,0l0,7.359l0.045,0l6.326,-7.359l3.799,0l-6.654,7.293l7.248,8.347l-3.975,0l-6.744,-8.127Z" style="fill-rule:nonzero;"/><path d="M82.767,54.732c0,-4.724 3.382,-8.083 8.325,-8.083c5.072,0 8.367,3.404 8.367,8.083c0,4.743 -3.316,8.083 -8.345,8.083c-4.83,0 -8.347,-3.273 -8.347,-8.083m3.185,0c0,2.899 1.934,5.688 5.14,5.688c3.295,0 5.183,-2.789 5.183,-5.688c0,-2.988 -1.888,-5.69 -5.161,-5.69c-3.274,0 -5.162,2.702 -5.162,5.69" style="fill-rule:nonzero;"/><path d="M101.753,62.551l0,-15.639l5.404,0c3.01,0 5.205,1.143 5.205,3.932c0,2.02 -1.076,3.118 -2.963,3.668l0,0.065c2.106,0.33 3.381,1.583 3.381,3.603c0,3.537 -3.009,4.371 -5.996,4.371l-5.031,0Zm3.076,-13.333l0,4.174l1.382,0c1.892,0 3.076,-0.528 3.076,-2.175c0,-1.603 -1.251,-1.999 -2.591,-1.999l-1.867,0Zm0,6.37l0,4.656l1.471,0c1.781,0 3.361,-0.328 3.361,-2.24c0,-2.13 -1.713,-2.416 -3.45,-2.416l-1.382,0Z" style="fill-rule:nonzero;"/><path d="M114.436,54.754c0,-5.119 3.801,-8.105 8.766,-8.105c1.338,0 2.898,0.262 4.193,0.703l0,2.767c-1.164,-0.66 -2.768,-1.077 -4.041,-1.077c-3.338,0 -5.732,2.439 -5.732,5.712c0,3.448 2.591,5.666 5.842,5.666c1.23,0 2.944,-0.417 3.952,-0.9l0,2.657c-1.164,0.396 -2.701,0.638 -4.193,0.638c-4.568,0 -8.787,-2.636 -8.787,-8.061" style="fill-rule:nonzero;"/><path d="M132.814,54.424l-0.046,0l0,8.127l-3.074,0l0,-15.64l3.074,0l0,7.359l0.046,0l6.326,-7.359l3.8,0l-6.658,7.293l7.249,8.347l-3.975,0l-6.742,-8.127Z" style="fill-rule:nonzero;"/><path d="M156.016,50.954l-0.045,0l-7.313,11.597l-3.494,0l0,-15.639l3.077,0l0,11.598l0.044,0l7.465,-11.598l3.34,0l0,15.639l-3.074,0l0,-11.597Z" style="fill-rule:nonzero;"/><path d="M172.968,50.954l-0.043,0l-7.314,11.597l-3.494,0l0,-15.639l3.077,0l0,11.598l0.044,0l7.466,-11.598l3.338,0l0,15.639l-3.074,0l0,-11.597Zm-7.469,-7.468l1.516,-0.286c0.244,0.989 1.099,1.405 1.934,1.405c0.834,0 1.624,-0.373 1.888,-1.405l1.539,0.286c-0.396,1.801 -1.627,2.878 -3.427,2.878c-1.825,0 -3.054,-1.077 -3.45,-2.878" style="fill-rule:nonzero;"/><path d="M30.301,71.358l-0.045,0l-4.788,5.514l-0.045,0l-4.701,-5.514l-0.043,0l0,12.322l-3.074,0l0,-15.638l3.58,0l4.327,5.074l4.306,-5.074l3.558,0l0,15.638l-3.075,0l0,-12.322Z" style="fill-rule:nonzero;"/><path d="M46.431,79.991l-6.83,0l-1.404,3.689l-3.164,0l6.281,-15.638l3.601,0l6.262,15.638l-3.362,0l-1.384,-3.689Zm-3.382,-9.424l-2.638,7.117l5.23,0l-2.548,-7.117l-0.044,0Z" style="fill-rule:nonzero;"/><path d="M55.905,77.75l0,5.931l-3.076,0l0,-15.639l4.92,0c3.625,0 5.845,1.384 5.845,4.877c0,3.228 -2.309,4.831 -5.646,4.831l-2.043,0Zm-0.021,-7.358l0,5.008l1.667,0c1.516,0 2.944,-0.571 2.944,-2.526c0,-1.801 -1.428,-2.482 -2.899,-2.482l-1.712,0Z" style="fill-rule:nonzero;"/><path d="M74.239,79.991l-6.832,0l-1.404,3.689l-3.164,0l6.283,-15.638l3.602,0l6.263,15.638l-3.363,0l-1.385,-3.689Zm-3.383,-9.424l-2.636,7.117l5.23,0l-2.549,-7.117l-0.045,0Z" style="fill-rule:nonzero;"/><path d="M89.163,82.033l0,1.802l-3.075,0l0,-1.802c-4.021,-0.044 -7.071,-2.328 -7.071,-6.436c0,-4.129 2.876,-6.304 7.093,-6.37l0,-1.339l3.032,0l0,1.339c4.216,0.066 7.093,2.241 7.093,6.37c0,4.108 -3.051,6.392 -7.072,6.436m-3.053,-10.587c-2.615,0.044 -3.974,1.472 -3.974,4.174c0,2.68 1.272,4.195 3.974,4.216l0,-8.39Zm3.032,0l0,8.39c2.703,-0.021 3.975,-1.536 3.975,-4.216c0,-2.702 -1.363,-4.13 -3.975,-4.174" style="fill-rule:nonzero;"/><path d="M98.036,75.862c0,-4.723 3.381,-8.083 8.324,-8.083c5.072,0 8.367,3.404 8.367,8.083c0,4.744 -3.316,8.083 -8.345,8.083c-4.832,0 -8.346,-3.273 -8.346,-8.083m3.183,0c0,2.898 1.934,5.689 5.141,5.689c3.295,0 5.182,-2.791 5.182,-5.689c0,-2.988 -1.887,-5.689 -5.16,-5.689c-3.276,0 -5.163,2.701 -5.163,5.689" style="fill-rule:nonzero;"/><path d="M127.882,76.762l-7.773,0l0,6.919l-3.079,0l0,-15.639l3.079,0l0,6.305l7.773,0l0,-6.305l3.078,0l0,15.639l-3.078,0l0,-6.919Z" style="fill-rule:nonzero;"/><path d="M29.796,104.811l1.821,-13.07l-0.067,0l-6.213,6.239l-4.416,-6.239l-0.066,0l-1.844,13.07l-2.021,0l2.197,-15.64l2.306,0l4.172,6.062l5.864,-6.062l2.482,0l-2.195,15.64l-2.02,0Z" style="fill-rule:nonzero;"/><path d="M35.545,98.023c0,-5.206 3.91,-9.116 9.205,-9.116c4.48,0 7.093,3.076 7.093,6.964c0,5.315 -3.777,9.202 -9.203,9.202c-4.371,0 -7.095,-3.029 -7.095,-7.05m2.151,-0.043c0,2.833 1.737,5.337 5.12,5.337c4.041,0 6.875,-3.536 6.875,-7.358c0,-2.834 -1.668,-5.294 -5.14,-5.294c-3.954,0 -6.855,3.537 -6.855,7.315" style="fill-rule:nonzero;"/><path d="M59.266,90.665c-1.537,0 -3.186,0.681 -3.186,2.526c0,1.318 1.934,2.264 2.967,2.879c1.363,0.812 2.879,2.13 2.879,4.15c0,3.317 -2.748,4.854 -6.043,4.854c-1.185,0 -2.437,-0.307 -3.382,-0.637l0.286,-1.932c0.768,0.373 2.174,0.812 3.36,0.812c1.759,0 3.604,-1.142 3.604,-3.075c0,-1.581 -1.78,-2.35 -2.901,-3.074c-1.318,-0.836 -2.942,-1.978 -2.942,-3.888c0,-3.12 2.657,-4.372 5.534,-4.372c0.726,0 2.154,0.154 3.166,0.549l-0.266,1.911c-0.966,-0.439 -1.803,-0.703 -3.076,-0.703" style="fill-rule:nonzero;"/><path d="M73.282,90.665c-4.021,0 -7.25,3.185 -7.25,7.272c0,3.25 2.371,5.38 5.515,5.38c1.097,0 3.009,-0.395 3.911,-0.856l-0.286,1.976c-1.189,0.484 -2.988,0.637 -3.89,0.637c-4.502,0 -7.379,-2.855 -7.379,-7.028c0,-5.404 4.02,-9.138 9.334,-9.138c1.143,0 2.899,0.176 3.889,0.637l-0.284,2.043c-0.923,-0.571 -2.462,-0.923 -3.56,-0.923" style="fill-rule:nonzero;"/><path d="M77.169,98.023c0,-5.206 3.91,-9.116 9.203,-9.116c4.482,0 7.094,3.076 7.094,6.964c0,5.315 -3.777,9.202 -9.203,9.202c-4.372,0 -7.094,-3.029 -7.094,-7.05m2.151,-0.043c0,2.833 1.736,5.337 5.12,5.337c4.042,0 6.875,-3.536 6.875,-7.358c0,-2.834 -1.669,-5.294 -5.14,-5.294c-3.953,0 -6.855,3.537 -6.855,7.315" style="fill-rule:nonzero;"/><path d="M107.949,104.811l-1.604,-13.795l-0.066,0l-5.536,13.795l-2.68,0l-2.987,-15.64l2.108,0l2.394,13.576l0.067,0l5.513,-13.576l2.791,0l1.56,13.576l0.064,0l6.304,-13.576l2.197,0l-7.513,15.64l-2.612,0Z" style="fill-rule:nonzero;"/><path d="M29.796,125.941l1.821,-13.069l-0.067,0l-6.213,6.238l-4.416,-6.238l-0.066,0l-1.844,13.069l-2.021,0l2.197,-15.639l2.306,0l4.172,6.062l5.864,-6.062l2.482,0l-2.195,15.639l-2.02,0Z" style="fill-rule:nonzero;"/><path d="M38.007,121.921l-2.152,4.02l-2.175,0l8.698,-15.639l2.152,0l4.22,15.639l-2.153,0l-0.988,-4.02l-7.602,0Zm7.206,-1.669l-1.977,-8.083l-4.327,8.083l6.304,0Z" style="fill-rule:nonzero;"/><path d="M61.122,125.941l-2.481,0l-3.472,-6.59l-1.649,0l-0.92,6.59l-2.043,0l2.196,-15.639l3.955,0c2.723,0 4.83,1.187 4.83,4.02c0,2.439 -1.733,4.458 -4.238,4.744l3.822,6.875Zm-6.59,-13.882l-0.791,5.69l1.758,0c2.152,0 3.865,-0.924 3.865,-3.252c0,-1.471 -0.924,-2.438 -2.746,-2.438l-2.086,0Z" style="fill-rule:nonzero;"/><path d="M66.636,121.921l-2.152,4.02l-2.175,0l8.698,-15.639l2.15,0l4.219,15.639l-2.151,0l-0.987,-4.02l-7.602,0Zm7.204,-1.669l-1.975,-8.083l-4.329,8.083l6.304,0Z" style="fill-rule:nonzero;"/><path d="M84.988,112.058l-1.955,13.882l-1.999,0l1.955,-13.882l-5.647,0l0.245,-1.757l13.243,0l-0.241,1.757l-5.601,0Z" style="fill-rule:nonzero;"/><path d="M101.204,125.941l1.012,-7.205l-8.633,0l-1.032,7.205l-2.021,0l2.196,-15.639l2.043,0l-0.944,6.655l8.633,0l0.943,-6.655l2.022,0l-2.196,15.639l-2.023,0Z" style="fill-rule:nonzero;"/><path d="M106.883,119.154c0,-5.207 3.91,-9.117 9.204,-9.117c4.481,0 7.094,3.076 7.094,6.964c0,5.316 -3.777,9.204 -9.203,9.204c-4.371,0 -7.095,-3.031 -7.095,-7.051m2.153,-0.044c0,2.833 1.735,5.337 5.118,5.337c4.041,0 6.875,-3.535 6.875,-7.358c0,-2.834 -1.67,-5.294 -5.14,-5.294c-3.954,0 -6.853,3.537 -6.853,7.315" style="fill-rule:nonzero;"/><path d="M135.709,125.941l-7.03,-13.091l-0.088,0l-1.844,13.091l-2.021,0l2.197,-15.639l2.635,0l6.964,12.916l0.065,0l1.823,-12.916l2.023,0l-2.198,15.639l-2.526,0Z" style="fill-rule:nonzero;"/><defs><linearGradient id="_Linear1" x1="0" y1="0" x2="1" y2="0" gradientUnits="userSpaceOnUse" gradientTransform="matrix(-3.23119,36.9326,-36.9326,-3.23119,14.6551,0.200473)"><stop offset="0" style="stop-color:#ffc222;stop-opacity:1"/><stop offset="1" style="stop-color:#db5c1e;stop-opacity:1"/></linearGradient><linearGradient id="_Linear2" x1="0" y1="0" x2="1" y2="0" gradientUnits="userSpaceOnUse" gradientTransform="matrix(5.69382,35.9493,-35.9493,5.69382,34.0076,0.312289)"><stop offset="0" style="stop-color:#ee3123;stop-opacity:1"/><stop offset="1" style="stop-color:#9e1922;stop-opacity:1"/></linearGradient></defs></svg>