<?xml version="1.0" encoding="UTF-8"?> <svg xmlns="http://www.w3.org/2000/svg" xmlns:xlink="http://www.w3.org/1999/xlink" width="446px" height="229px" viewBox="0 0 446 229"> <!-- Generator: Sketch 61 (89581) - https://sketch.com --> <title>Artboard</title> <desc>Created with Sketch.</desc> <g id="Artboard" stroke="none" stroke-width="1" fill="none" fill-rule="evenodd"> <g id="XMLID-1" fill-rule="nonzero"> <path d="M152.470371,148.337739 C153.640437,148.704001 154.883503,149.070263 156.05334,149.436525 C154.883503,148.997149 153.713437,148.704001 152.470371,148.337739 Z" id="Path" fill="#EA5892"></path> <path d="M133.312462,178.005425 C133.312462,181.228439 133.312462,184.451683 133.166233,187.674927 C133.093233,189.799155 133.020003,192.289874 132.800774,194.780364 C132.654544,197.344199 132.361855,200.054722 131.996396,202.765015 C131.192019,208.185831 129.875723,213.753106 127.535821,218.441169 C131.192019,221.95733 135.433135,224.374706 140.405399,224.740968 L140.990318,224.667853 C154.225355,218.95389 156.272799,200.054722 157.003947,187.161976 C157.223406,183.059979 157.296406,178.957752 157.296406,174.855525 C149.033632,172.877756 140.917318,170.387036 132.873774,167.603399 C133.166233,171.046216 133.312462,174.562378 133.312462,178.005425 Z" id="Path" fill="#EA5892"></path> <path d="M141.356006,66.3672349 C138.430956,68.4183484 135.579365,70.5428062 132.727544,72.7403785 C135.579365,70.6159207 138.430956,68.4916928 141.356006,66.3672349 Z" id="Path" fill="#EA5892"></path> <path d="M128.340198,76.1831958 C127.901509,76.4763434 127.535821,76.8426054 127.170362,77.1355231 C127.535821,76.8426054 127.974509,76.5494578 128.340198,76.1831958 Z" id="Path" fill="#EA5892"></path> <path d="M96.0934811,4.83436014 C95.2891038,5.85989388 94.4847264,6.8854506 93.8268082,8.05748916 C93.1686604,9.2295507 92.5105126,10.4016122 91.9985943,11.7201556 C98.4333836,18.6792265 102.966959,29.0080462 105.89178,36.1134839 C108.743601,42.926004 111.448962,50.6908514 113.642635,57.7231747 C120.296884,52.5221616 127.097132,47.5409518 134.190069,42.926004 C132.800544,39.1169247 131.118789,34.5750914 129.510264,30.8393564 C124.611,19.2652458 116.348226,1.53795342 102.308811,0.146141546 L102.162582,0.146141546 C100.992745,0.732167721 99.8959088,1.3914486 98.8720723,2.19723431 C97.8484654,2.9297745 96.8978585,3.80880341 96.0934811,4.83436014 Z" id="Path" fill="#EA5892"></path> <path d="M133.312462,178.005425 C133.312462,174.562378 133.166233,171.046216 132.947003,167.603399 C133.166233,171.046216 133.312462,174.562378 133.312462,178.005425 Z" id="Path" fill="#EA5892"></path> <path d="M127.60905,218.514513 C129.948953,213.826221 131.265019,208.33229 132.069396,202.838359 C131.265019,208.258946 129.948953,213.826221 127.60905,218.514513 Z" id="Path" fill="#EA5892"></path> <path d="M104.721943,172.145002 C98.067695,177.492704 92.364283,181.668045 85.2715755,186.356337 C86.5146415,189.872499 87.684478,193.901382 89.0737736,197.344199 C94.0460377,209.504191 102.162582,227.817523 116.933145,228.843195 L117.591292,228.76985 C120.369884,227.524605 122.709786,225.693295 124.538,223.349264 C124.976689,222.836313 125.342148,222.323592 125.781066,221.737527 L125.854066,221.664413 C126.512214,220.638741 127.097132,219.613299 127.68205,218.514513 C123.148475,214.119368 112.472799,197.564002 104.721943,172.145002 Z" id="Path" fill="#FAEA29"></path> <path d="M86.8071006,54.7199639 C86.7338711,49.9585572 86.8071006,45.1971506 87.0263302,40.5088584 C87.1725597,37.578762 87.3187893,34.0626004 87.7577075,30.3266355 C87.9769371,27.8361456 88.3426258,25.2723112 88.8543145,22.7083619 C89.5856918,18.8991907 90.6092987,15.0900194 92.0718239,11.6471101 C91.121217,10.6215534 90.1706101,9.66927209 89.1470031,8.86347259 C86.0757233,6.29961526 82.6389843,4.54153444 78.6905566,4.17527239 L78.544327,4.17527239 C66.1134371,10.1087865 64.0662233,28.7151285 63.2618459,41.0949237 C62.9693868,45.5634127 62.8229277,50.0319016 62.8229277,54.5003906 C71.0127013,56.4781596 79.1292453,58.0165522 87.1725597,60.7268454 C86.8801006,58.3828143 86.8801006,56.9908805 86.8071006,54.7199639 Z" id="Path" fill="#FAEA29"></path> <path d="M87.684478,30.3266355 C87.3187893,34.0626004 87.0995597,37.578762 86.9533302,40.5088584 C86.7338711,45.270495 86.6606415,49.9585572 86.7338711,54.7199639 C86.6606415,49.9585572 86.7338711,45.1971506 86.9533302,40.5088584 C87.1725597,37.578762 87.3187893,34.0626004 87.684478,30.3266355 Z" id="Path" fill="#FAEA29"></path> <path d="M116.713915,202.325409 C119.492506,208.112487 123.075475,214.119368 127.60905,218.514513 C123.148475,214.119368 119.565506,208.112487 116.713915,202.325409 Z" id="Path" fill="#FAEA29"></path> <path d="M89.0737736,8.86365653 C90.0973805,9.74268544 91.0479874,10.6949898 91.9985943,11.6472711 C92.5105126,10.4019801 93.1686604,9.15666616 93.8265786,7.98460462 C94.4847264,6.81256606 95.2891038,5.78700934 96.0934811,4.7614756 C96.8978585,3.73591888 97.8484654,2.85688996 98.8720723,2.05109276 C99.8959088,1.24530706 100.992516,0.586026175 102.162582,0 L78.6905566,4.02892851 C82.4927547,4.54169538 85.9294937,6.2997762 89.0737736,8.86365653 Z" id="Path" fill="#EE8F08"></path> <path d="M93.8268082,8.05769608 C93.1686604,9.22973464 92.5105126,10.4017962 91.9985943,11.7203626 C92.5105126,10.4017962 93.1686604,9.15648223 93.8268082,8.05769608 Z" id="Path" fill="#EE8F08"></path> <path d="M89.0737736,8.86347259 C90.0973805,9.74250151 91.0479874,10.6948058 91.9985943,11.6470871 C91.0479874,10.6948058 90.0973805,9.74250151 89.0737736,8.86347259 Z" id="Path" fill="#EE8F08"></path> <path d="M125.707836,221.737527 C125.342377,222.323592 124.903459,222.836313 124.46477,223.349264 C122.563557,225.693295 120.296884,227.524605 117.518292,228.76985 L140.478629,224.814312 C135.506135,224.44805 131.265248,222.030675 127.60905,218.514513 C127.024132,219.613299 126.439214,220.712085 125.781066,221.664413 C125.781066,221.664413 125.781066,221.737527 125.707836,221.737527 Z" id="Path" fill="#EE8F08"></path> <path d="M117.591292,228.76985 C120.369884,227.524605 122.709786,225.693295 124.538,223.349264 C122.636786,225.693295 120.369884,227.524605 117.591292,228.76985 Z" id="Path" fill="#EE8F08"></path> <path d="M125.780836,221.664413 L125.707836,221.737297 C125.780836,221.737297 125.780836,221.664413 125.780836,221.664413 Z" id="Path" fill="#EE8F08"></path> <path d="M91.9985943,108.121798 C88.1963962,111.711074 84.3939686,115.373695 80.5917704,119.036545 C84.3939686,115.373695 88.1963962,111.711074 91.9985943,108.121798 Z" id="Path" fill="#FAEA29"></path> <path d="M180.622431,101.528851 C175.357708,107.975109 169.800296,114.12845 164.096884,120.208446 C186.325843,133.174306 203.509538,151.048262 206.288129,155.809669 C211.260393,154.637538 215.574509,152.439966 218.57256,148.411083 L218.792019,147.825018 C221.204921,133.613913 191.517566,107.682192 180.622431,101.528851 Z" id="Path" fill="#EA5892"></path> <path d="M12.7345286,71.2019859 C13.1001484,71.7880512 13.4657682,72.3741165 13.8313651,72.9601817 C15.0013164,72.7403785 16.1712676,72.5939197 17.4143336,72.5205753 C25.8964057,71.7880512 35.1830157,73.3995582 41.7640346,74.5716888 C49.1492013,75.9633926 57.1927453,77.7215884 64.5049119,79.8460462 C63.7735346,71.4217892 62.6036981,62.9244177 62.6766981,54.5003906 C58.5820409,53.5480633 54.4139245,52.6688504 50.2460377,51.9363263 C37.8883774,49.738754 18.5842849,47.0284608 9.66340943,58.0896667 L9.59029465,58.2361255 C9.29781258,60.2141245 9.44406509,62.1185492 9.80966195,63.9498594 C10.3215113,66.3672349 11.345233,68.8579548 12.7345286,71.2019859 Z" id="Path" fill="#EA5892"></path> <path d="M120.223654,82.849257 C122.490557,80.9448323 124.830459,79.0401777 127.170362,77.1355231 C124.830459,79.0401777 122.490557,80.9448323 120.223654,82.849257 Z" id="Path" fill="#EA5892"></path> <path d="M86.9535078,60.653501 C78.9097862,57.9432078 70.8664717,56.4048153 62.6036981,54.4270462 C62.5304686,62.8510733 63.554305,71.4951335 64.4316824,79.7729147 C64.5779119,79.8460462 87.0263302,60.9466486 86.9535078,60.653501 Z" id="Path" fill="#EE8F08"></path> <path d="M206.288129,155.809669 C203.436538,151.048262 199.195421,146.652888 194.734846,142.843808 C199.195421,146.579773 203.509538,150.974918 206.288129,155.809669 Z" id="Path" fill="#EA5892"></path> <path d="M198.902733,156.688652 C198.756503,156.688652 198.537274,156.688652 198.391044,156.688652 C195.831682,156.761996 193.27255,156.688652 190.786189,156.468848 C190.12827,156.395734 189.470123,156.32239 188.811975,156.249275 C187.934597,156.175931 187.13022,156.029472 186.252843,155.956128 C182.669874,155.516751 179.233135,154.857341 176.308085,154.271276 C169.507836,152.952687 162.780588,151.267835 156.126569,149.290066 C156.930947,157.787438 157.442635,166.284809 157.515865,174.782181 C160.952604,175.588049 164.389343,176.393918 167.899082,177.053097 C180.76866,179.470473 200.365258,182.25411 209.21295,170.387036 L209.432409,169.800971 C209.432409,169.654512 209.505409,169.434709 209.505409,169.28825 C209.651638,168.335923 209.724868,167.45694 209.651638,166.504612 C209.651638,166.358154 209.651638,166.211695 209.651638,165.991892 C209.505409,163.281598 208.774261,160.717534 207.604425,158.1537 C207.238736,157.348061 206.800047,156.542193 206.361358,155.736324 C203.948226,156.32239 201.388865,156.615537 198.902733,156.688652 Z" id="Path" fill="#FAEA29"></path> <path d="M70.7202421,129.145424 C68.0878805,131.929061 65.5285189,134.785813 62.9693868,137.642795 C65.5285189,134.785813 68.0878805,131.929061 70.7202421,129.145424 Z" id="Path" fill="#FAEA29"></path> <path d="M50.3192673,102.774326 C45.127544,99.6244267 40.0820503,96.3278384 35.2560157,92.8116767 C33.6474906,91.6397761 31.8925063,90.3945311 29.9912925,88.929253 C28.0900786,87.4642048 26.1890943,85.9260422 24.2146509,84.2411908 C22.3135289,82.5563394 20.412361,80.7981436 18.5843079,78.8937189 C16.8293925,76.9890643 15.2207066,75.0112952 13.8313881,72.9601817 C13.1732862,73.1066406 12.4420695,73.1799849 11.7839676,73.3995582 C7.17730031,74.4985743 3.08248239,76.5494578 0.230723616,80.1389639 L0.157600802,80.2854227 C-1.6704466,93.9838072 12.8076893,105.850882 22.6791258,113.249467 C28.6019969,117.717956 34.744327,121.820183 41.1058868,125.629262 C46.3706101,119.256118 52.001022,113.176122 57.8506635,107.242585 C55.2915314,105.777537 52.8053994,104.312489 50.3192673,102.774326 Z" id="Path" fill="#FAEA29"></path> <path d="M133.020003,167.603399 C132.727544,161.669861 132.215626,155.66321 131.557478,149.729673 C132.215626,155.66321 132.727544,161.596747 133.020003,167.603399 Z" id="Path" fill="#FAEA29"></path> <path d="M80.6647704,119.036545 C77.301261,122.332904 74.0107516,125.702606 70.7932421,129.145424 C74.0107516,125.702606 77.301261,122.332904 80.6647704,119.036545 Z" id="Path" fill="#FAEA29"></path> <path d="M50.3192673,102.774096 C52.8053994,104.312489 55.2915314,105.777537 57.8506635,107.169471 C55.2915314,105.777537 52.8053994,104.312489 50.3192673,102.774096 Z" id="Path" fill="#FAEA29"></path> <path d="M198.902962,156.688652 C201.462094,156.615307 203.948226,156.32239 206.288129,155.736324 C203.948226,156.32239 201.389094,156.615307 198.902962,156.688652 Z" id="Path" fill="#FAEA29"></path> <path d="M188.738975,156.32239 C187.861597,156.249045 187.05722,156.102586 186.179613,156.029472 C187.05722,156.175931 187.934597,156.249045 188.738975,156.32239 Z" id="Path" fill="#FAEA29"></path> <path d="M35.2560157,92.8116767 C33.6474906,91.6397761 31.8925063,90.3943012 29.9912925,88.929253 C31.8192767,90.3943012 33.6474906,91.7128906 35.2560157,92.8116767 Z" id="Path" fill="#FAEA29"></path> <path d="M198.317814,156.761996 C195.758682,156.83511 193.199321,156.761996 190.713189,156.542193 C193.272321,156.761996 195.831682,156.83511 198.317814,156.761996 Z" id="Path" fill="#FAEA29"></path> <path d="M152.470601,148.337739 C149.326321,147.385412 146.182041,146.35997 143.110991,145.261184 C146.255041,146.286626 149.326321,147.312297 152.470601,148.337739 Z" id="Path" fill="#FAEA29"></path> <path d="M138.211726,143.502988 C139.820252,144.089053 141.502236,144.675118 143.110761,145.261184 C141.502236,144.675118 139.820252,144.089053 138.211726,143.502988 Z" id="Path" fill="#FAEA29"></path> <path d="M13.831411,72.9601817 C13.4657912,72.3741165 13.1001943,71.7880512 12.7345745,71.2019859 C11.345256,68.8579548 10.3215572,66.3672349 9.88282264,63.876745 C9.51720283,61.9720904 9.44408805,60.0674357 9.66345535,58.163011 L0.23073739,80.1389639 C3.08248239,76.5494578 7.17732327,74.4983444 11.7839906,73.3995582 C12.4420925,73.1799849 13.1733091,73.0332962 13.831411,72.9601817 Z" id="Path" fill="#EE8F08"></path> <path d="M12.7345745,71.2019859 C13.1001714,71.7880512 13.4657912,72.3741165 13.8313881,72.9601817 C13.4657912,72.3741165 13.1001714,71.7880512 12.7345745,71.2019859 Z" id="Path" fill="#EE8F08"></path> <path d="M11.7839906,73.3264438 C12.4420925,73.1799849 13.1001943,73.0332962 13.831411,72.8868373 C13.1733091,73.0332962 12.4420925,73.1799849 11.7839906,73.3264438 Z" id="Path" fill="#EE8F08"></path> <path d="M209.651868,166.065006 C209.651868,166.211695 209.651868,166.358154 209.651868,166.577957 C209.651868,167.530054 209.578638,168.409267 209.505638,169.361594 C209.505638,169.508053 209.505638,169.727856 209.432409,169.874315 L218.645789,148.411083 C215.647739,152.439966 211.260393,154.637538 206.361358,155.809669 C206.800047,156.615307 207.238736,157.421176 207.604425,158.227044 C208.774261,160.717534 209.505638,163.354713 209.651868,166.065006 Z" id="Path" fill="#EE8F08"></path> <path d="M209.651868,166.065006 C209.505409,163.354713 208.774261,160.790879 207.604425,158.227044 C208.774261,160.717534 209.505409,163.354713 209.651868,166.065006 Z" id="Path" fill="#EE8F08"></path> <path d="M209.432409,169.28825 C209.578638,168.335923 209.651638,167.45694 209.578638,166.504612 C209.651638,167.45694 209.578638,168.335923 209.432409,169.28825 Z" id="Path" fill="#EE8F08"></path> <path d="M94.9236447,125.702606 C90.1706101,123.578149 85.3445755,121.380576 80.5917704,119.036545 C85.417805,121.307232 90.1706101,123.504804 94.9236447,125.702606 Z" id="Path" fill="#FAEA29"></path> <path d="M160.367686,54.0607841 C166.144327,50.6910813 174.407101,46.1494779 182.669874,43.9519056 C183.839711,43.658758 185.009777,43.3658404 186.179613,43.1460371 C186.325843,42.4868574 186.472072,41.8274478 186.618302,41.0949237 C187.13022,38.3846305 187.27645,35.7474518 186.910761,33.2567319 C186.618302,31.3523072 186.106384,29.520997 185.156006,27.7628012 L185.082777,27.6163424 C173.017575,20.217757 155.760881,29.2278494 144.792745,35.4545341 C141.136547,37.578762 136.676201,40.1425964 133.093233,42.4868574 C135.944824,50.3981637 138.357956,58.5292731 140.478399,66.733497 C146.62073,62.4116968 153.859667,57.8698635 160.367686,54.0607841 Z" id="Path" fill="#EA5892"></path> <path d="M37.8886069,171.705626 C38.254066,171.046216 38.6197547,170.387036 38.9852138,169.727856 C39.4971321,168.848644 40.0090503,168.043005 40.5209686,167.163792 C40.8864277,166.577957 41.2521164,165.991892 41.5445755,165.479171 C42.2757233,164.380385 42.9338711,163.281368 43.6650189,162.255927 C44.6888553,160.717534 45.7124623,159.252486 46.6630692,157.933897 C48.564283,155.296948 50.4654969,152.732884 52.4397107,150.169049 C55.8034497,145.847249 59.6788774,141.158957 63.3348459,137.05673 C55.8764497,133.320765 48.564283,129.365227 41.4715755,125.043197 C36.7917704,130.610472 32.0387358,136.983615 27.9438491,142.990267 C20.704866,153.685211 10.9065214,169.94743 17.9262289,182.547028 L18.3649635,182.986635 C22.5328962,185.770272 27.3589308,186.429452 32.4044245,185.843387 C33.2088019,181.668045 34.8905566,177.419359 37.011,173.317133 C37.3766887,172.804412 37.6691478,172.218346 37.8886069,171.705626 Z" id="Path" fill="#EA5892"></path> <path d="M61.5798616,109.293699 C63.7005346,110.465829 65.8942075,111.63796 68.0146509,112.80986 C65.820978,111.63796 63.7005346,110.465829 61.5798616,109.293699 Z" id="Path" fill="#EA5892"></path> <path d="M117.956981,73.2530994 C116.567686,67.7591687 115.10516,62.3383524 113.423406,56.9175361 C115.03216,62.3383524 116.567686,67.7591687 117.956981,73.2530994 Z" id="Path" fill="#EA5892"></path> <path d="M68.0146509,112.736746 C68.6727987,113.103008 69.3309465,113.395926 69.9890943,113.762188 C69.3309465,113.46927 68.6727987,113.103008 68.0146509,112.736746 Z" id="Path" fill="#EA5892"></path> <path d="M120.223654,82.849257 C119.492506,79.626243 118.761358,76.4763434 117.956981,73.2530994 C118.761358,76.4763434 119.492506,79.6993574 120.223654,82.849257 Z" id="Path" fill="#EA5892"></path> <path d="M133.897381,42.1203655 C126.804673,46.7353133 120.004425,51.716753 113.350176,56.9175361 C115.031931,62.3383524 119.492506,79.626243 120.150654,82.849257 C122.417327,80.9446024 138.357956,68.4183484 141.282777,66.3672349 C139.235333,58.163011 136.749201,50.1050161 133.897381,42.1203655 Z" id="Path" fill="#EA5892"></path> <path d="M117.956981,73.2530994 C116.567686,67.7591687 115.10516,62.3383524 113.423406,56.9175361 C109.401748,60.0674357 105.453091,63.3640241 101.504434,66.6603825 C96.9710881,70.4694618 92.5837421,74.4252299 88.1963962,78.3807681 C86.4414119,79.992505 84.6134277,81.604012 82.8584434,83.2155191 C82.2002956,83.8749287 81.4691478,84.4607641 80.811,85.1201737 C75.8387358,89.6617771 70.9397013,94.3500693 66.0404371,99.0383614 C63.2618459,101.67531 59.9713365,104.971899 57.2657453,107.682192 C58.5088113,108.341371 59.7518774,109.073896 60.9219434,109.733305 C63.0423868,110.905206 65.2360597,112.077336 67.3565031,113.249467 C68.0146509,113.615729 68.6727987,113.908647 69.3309465,114.274909 C72.8406855,116.106219 76.4236541,117.864415 79.9336226,119.549266 C83.6628208,115.813301 88.1231667,111.63796 91.9255943,108.048454 C94.4117264,105.704423 96.8978585,103.433506 99.3109906,101.162589 C101.577664,99.0383614 103.917566,96.987248 106.184239,94.8627902 C110.717814,90.7605633 115.324619,86.7316807 120.077425,82.7761426 C119.492506,79.6993574 118.761358,76.4763434 117.956981,73.2530994 Z" id="Path" fill="#EA5892"></path> <path d="M69.9890943,113.762188 C69.3309465,113.395926 68.6727987,113.103008 68.0146509,112.736746 C65.820978,111.63796 63.7005346,110.392485 61.5798616,109.220584 C60.3367956,108.561175 59.0937296,107.828651 57.9238931,107.169471 C52.1472516,113.103008 46.5168396,119.183004 41.1788868,125.555918 C48.2718239,129.877948 55.5839906,133.833716 63.0423868,137.569451 C65.6017484,134.712699 68.1608805,131.855717 70.7932421,129.072079 C74.0107516,125.629262 77.374261,122.332904 80.6647704,118.963201 C77.0818019,117.351694 73.4988333,115.593498 69.9890943,113.762188 Z" id="Path" fill="#EA5892"></path> <path d="M57.8506635,107.242585 C59.0937296,107.901995 60.3367956,108.634519 61.5068616,109.293699 C60.3367956,108.561175 59.0937296,107.901995 57.8506635,107.242585 Z" id="Path" fill="#EA5892"></path> <path d="M37.084,173.317133 C35.0367862,177.346015 33.2818019,181.668045 32.4774245,185.843387 C33.3548019,181.594701 35.0367862,177.346015 37.084,173.317133 Z" id="Path" fill="#EA5892"></path> <path d="M37.8883774,171.705626 C38.254066,171.046446 38.6197547,170.387036 38.9852138,169.727856 C38.6197547,170.387036 38.254066,171.046446 37.8883774,171.705626 Z" id="Path" fill="#EA5892"></path> <path d="M128.340198,76.1831958 C129.802723,75.0112952 131.265019,73.912509 132.654544,72.7403785 C131.265019,73.912509 129.802723,75.0112952 128.340198,76.1831958 Z" id="Path" fill="#EA5892"></path> <path d="M78.9830157,161.157141 C73.3526038,165.186023 66.2598962,170.899757 60.2637956,174.415919 C57.704434,175.954311 54.7066132,177.639163 51.4891038,179.324014 C50.757956,179.690276 49.9535786,180.056538 49.2224308,180.4228 C48.6375126,180.715718 48.0523648,181.008865 47.4674465,181.228439 C45.127544,182.25411 42.7876415,183.206438 40.374739,184.012076 C40.2285094,184.085421 40.0090503,184.085421 39.8628208,184.158765 C37.4496887,184.891289 34.9635566,185.477124 32.5506541,185.770272 C32.4044245,186.649255 32.258195,187.601582 32.1849654,188.480565 C31.8195063,192.362989 32.331195,196.098954 34.0861792,199.541771 C34.1591792,199.68846 34.2324088,199.834919 34.3056384,200.054722 L34.744327,200.494098 C47.0287579,208.698552 64.5779119,199.102395 75.9119654,192.509448 C78.9830157,190.751482 82.3465252,188.260762 85.2715755,186.282993 C83.004673,176.76018 81.1034591,169.28825 79.0560157,161.083796 L78.9830157,161.157141 Z" id="Path" fill="#EA5892"></path> <path d="M192.175484,42.7064307 C190.859418,42.6333163 189.543123,42.7064307 188.153827,42.8528896 C187.495679,42.9262339 186.764531,42.9995783 186.106384,43.1460371 C185.521465,45.5634127 179.598594,67.2464478 158.685701,89.7351215 C166.144097,93.397742 173.456264,97.2801657 180.622431,101.455737 C197.001519,81.3108645 207.750654,57.6500602 201.462094,45.4169538 L201.388865,45.2702651 C199.70711,44.2448233 197.952126,43.5122992 196.051142,43.1460371 C194.808075,42.9262339 193.49178,42.7797751 192.175484,42.7064307 Z" id="Path" fill="#FAEA29"></path> <path d="M79.0560157,161.157141 C81.1034591,169.361594 82.4197547,176.320573 85.2713459,186.356337 C92.364283,181.74139 98.067695,177.492704 104.721943,172.145002 C104.721943,171.925429 79.0560157,161.157141 79.0560157,161.157141 Z" id="Path" fill="#EE8F08"></path> <path d="M127.389591,120.061987 C128.559657,126.874507 129.583264,133.760371 130.533871,140.572892 C129.583264,133.760371 128.486428,126.874507 127.389591,120.061987 Z" id="Path" fill="#FAEA29"></path> <path d="M164.096884,120.135331 C169.873296,114.12845 175.430708,107.901995 180.622431,101.455737 C173.529494,97.2801657 166.144097,93.397742 158.685701,89.7351215 C158.685701,89.8815803 163.950425,120.061987 164.096884,120.135331 Z" id="Path" fill="#EE8F08"></path> <path d="M152.470371,148.337739 C149.326321,147.385412 146.182041,146.35997 143.110761,145.261184 C141.502236,144.675118 139.820481,144.089053 138.211726,143.502988 C135.652365,142.550891 133.020003,141.598563 130.460871,140.646236 C130.82633,143.649677 131.192019,146.652888 131.557708,149.729673 C132.215626,155.66321 132.727544,161.669861 133.020003,167.603399 C141.063547,170.387036 149.253091,172.877756 157.442865,174.855525 C157.442865,166.358154 156.930947,157.860782 156.05334,149.363411 C154.883503,148.997149 153.713667,148.704001 152.470371,148.337739 Z" id="Path" fill="#EE8F08"></path> <path d="M130.460871,140.646236 C130.82633,143.649677 131.192019,146.652888 131.557708,149.729673 C131.265019,146.652888 130.89956,143.649677 130.460871,140.646236 Z" id="Path" fill="#FAEA29"></path> <path d="M129.217805,140.133515 C129.656494,140.279974 130.021953,140.426433 130.460871,140.646236 C130.021953,140.499777 129.656494,140.279974 129.217805,140.133515 Z" id="Path" fill="#FAEA29"></path> <path d="M129.217805,140.133515 C126.146525,138.961385 123.075475,137.71614 120.077425,136.470665 C123.075475,137.71614 126.146525,138.961385 129.217805,140.133515 Z" id="Path" fill="#FAEA29"></path> <path d="M130.460871,140.646236 C133.020003,141.598563 135.579365,142.624005 138.211726,143.502988 C135.579365,142.550891 133.020003,141.598563 130.460871,140.646236 Z" id="Path" fill="#FAEA29"></path> <path d="M129.217805,140.133515 C126.146525,138.961385 123.075475,137.71614 120.077425,136.470665 C118.029981,135.591682 115.982767,134.786043 113.935324,133.90683 C113.642865,133.760371 113.350176,133.687027 113.057717,133.540568 C111.375962,132.808044 109.767208,132.148864 108.085453,131.41634 C106.038009,130.537357 104.063796,129.658145 102.016352,128.779162 C99.6764497,127.75372 97.3365472,126.728048 94.9966447,125.629262 C90.2438396,123.505034 85.417805,121.307232 80.6647704,118.963201 C77.301261,122.259559 74.0107516,125.629262 70.7932421,129.072079 C68.1608805,131.855717 65.6017484,134.712699 63.0423868,137.569451 C66.4791258,139.254302 69.8426352,140.939154 73.2793742,142.550891 C79.6411635,145.554101 86.0027233,148.411083 92.364283,151.194721 C92.4375126,151.194721 92.5105126,151.267835 92.5837421,151.267835 C95.3623333,152.439966 98.067695,153.685211 100.846516,154.857341 C106.476698,157.274717 112.18034,159.618748 117.883752,161.889665 C122.856016,163.867434 127.901509,165.698744 133.020003,167.45694 C132.727544,161.523403 132.215626,155.516521 131.557708,149.583214 C131.192019,146.579773 130.82633,143.502988 130.460871,140.499777 C130.021953,140.499777 129.656494,140.279974 129.217805,140.133515 Z" id="Path" fill="#FAEA29"></path> <path d="M186.618302,41.1682681 C186.472072,41.8274478 186.325843,42.4866275 186.179613,43.2191516 C186.837761,43.0726928 187.568909,42.9995783 188.227057,42.9262339 C189.543123,42.7797751 190.932648,42.7064307 192.248714,42.7797751 C193.565009,42.8528896 194.808075,42.9995783 196.124142,43.292496 C198.025355,43.7321024 199.78034,44.3912821 201.462094,45.4169538 L185.229006,27.90926 C186.106613,29.6674558 186.691531,31.4987661 186.983991,33.4031908 C187.27645,35.8205663 187.13022,38.457745 186.618302,41.1682681 Z" id="Path" fill="#EE8F08"></path> <path d="M186.618302,41.1682681 C186.472072,41.8274478 186.325843,42.4866275 186.179613,43.2191516 C186.325843,42.4866275 186.472072,41.8274478 186.618302,41.1682681 Z" id="Path" fill="#EE8F08"></path> <path d="M188.227057,42.8531195 C187.568909,42.9262339 186.837761,42.9995783 186.179613,43.1460371 C186.837761,43.0726928 187.495909,42.9262339 188.227057,42.8531195 Z" id="Path" fill="#EE8F08"></path> <path d="M32.1119654,188.55391 C32.1849654,187.674697 32.331195,186.722599 32.4774245,185.843387 C27.4321604,186.429452 22.5329192,185.770272 18.4380783,182.986635 L34.3056384,200.127836 C34.2324088,199.981378 34.1591792,199.834919 34.0861792,199.615115 C32.258195,196.172298 31.7462767,192.436333 32.1119654,188.55391 Z" id="Path" fill="#E53488"></path> <path d="M32.1119654,188.55391 C31.7462767,192.436333 32.258195,196.172298 34.0129497,199.615115 C32.258195,196.172298 31.7462767,192.436333 32.1119654,188.55391 Z" id="Path" fill="#EE8F08"></path> <path d="M79.0562453,161.083796 L78.9830157,161.156911 C78.9830157,161.083796 79.0562453,161.083796 79.0562453,161.083796 Z" id="Path" fill="#EE8F08"></path> <path d="M153.420978,128.852506 L154.079126,132.515127 C153.932896,131.269882 153.713437,130.024407 153.567208,128.779162 C153.494208,128.779162 153.420978,128.852506 153.420978,128.852506 Z" id="Path" fill="#EE8F08"></path> <path d="M141.136547,65.7080552 C138.211726,67.7591687 135.359906,69.8833966 132.508085,72.0809689 C131.045789,73.179755 129.583264,74.3518855 128.193969,75.5240161 C127.75528,75.8169337 127.389591,76.1831958 127.024132,76.4763434 C124.68423,78.3807681 122.344327,80.2854227 120.077425,82.1900773 C121.53995,88.7096797 123.075475,96.0349207 124.245311,102.554523 C124.75723,105.264816 129.583264,133.760371 130.460871,140.646236 C133.020003,141.598563 135.579365,142.624005 138.211726,143.502988 C139.820481,144.089053 141.502236,144.675118 143.110761,145.261184 C146.255041,146.35997 149.326321,147.385412 152.470371,148.337739 C153.640437,148.704001 154.883503,149.070263 156.05334,149.436525 C153.274748,116.912087 142.745302,71.93451 141.136547,65.7080552 Z" id="Path" fill="#EA5892"></path> <path d="M34.817327,153.245834 C32.258195,151.267835 31.6730472,147.605215 33.7937201,144.821577 C35.9141635,142.03794 39.5703616,141.598563 42.2027233,143.576332 C44.7618553,145.554101 45.3470031,149.216722 43.2263302,152.000359 C41.0326572,154.783997 37.3766887,155.223603 34.817327,153.245834 Z M40.5209686,145.627446 C38.9852138,144.455315 36.7915409,144.601774 35.5484748,146.213511 C34.3054088,147.825018 34.744327,149.949246 36.3528522,151.121377 C37.8883774,152.293507 40.0820503,152.147048 41.3251164,150.535311 C42.5681824,148.923804 42.1294937,146.872691 40.5209686,145.627446 Z" id="Shape" fill="#362D7E"></path> <path d="M44.8350849,138.009057 L46.8092987,135.665026 C48.4910535,133.687027 50.4654969,133.467454 52.1472516,134.859158 C53.9022358,136.39755 53.9022358,138.448664 52.1472516,140.499777 L48.7105126,144.52866 L39.9358208,137.130074 L45.5662327,130.390669 L47.321217,131.855717 L43.2995597,136.617123 L44.8350849,138.009057 Z M46.4438396,139.400761 L48.564283,141.232301 L50.3922673,139.107843 C51.1236447,138.22886 51.1966447,137.496336 50.3922673,136.836927 C49.7341195,136.250861 49.0029717,136.39755 48.1985943,137.276533 L46.4438396,139.400761 Z" id="Shape" fill="#362D7E"></path> <polygon id="Path" fill="#362D7E" points="48.4910535 127.167655 50.1730377 125.336344 53.5365472 128.4129 56.680827 124.970082 53.3170881 121.893297 54.9990723 120.061987 63.4810755 127.75349 61.7993208 129.58503 58.4358113 126.508245 55.2915314 129.951292 58.6550409 133.027847 56.9732862 134.859158"></polygon> <polygon id="Path" fill="#362D7E" points="72.9139151 117.864415 71.1589308 119.62261 65.747978 114.421597 67.6489623 123.285231 65.9672075 124.970082 57.7776635 116.985432 59.5324182 115.227236 64.9436006 120.428249 63.0423868 111.564615 64.6511415 109.879764"></polygon> <polygon id="Path" fill="#362D7E" points="67.5759623 107.022782 69.4039465 105.264816 72.5482264 108.48806 75.8387358 105.191472 72.694456 101.968458 74.5224403 100.210262 82.5659843 108.414716 80.738 110.172682 77.5204906 106.876323 74.2299811 110.172682 77.4474906 113.46927 75.6192767 115.227236"></polygon> <path d="M80.884,101.968458 C78.617327,99.6244267 78.617327,95.9615763 81.1766887,93.5442008 C82.7122138,92.0791526 84.1745094,91.8595793 85.7100346,91.8595793 L85.7832642,94.1302661 C84.6131981,94.1302661 83.7358208,94.3500693 82.7852138,95.2290522 C81.3959182,96.5476416 81.4691478,98.6720994 82.8584434,100.137148 C84.1745094,101.602196 86.2951824,101.821999 87.757478,100.50341 C88.7080849,99.6244267 88.927544,98.6720994 89.000544,97.4266245 L91.3404465,97.5733133 C91.3404465,99.3312791 90.9017579,100.723213 89.2930031,102.188261 C86.7338711,104.605637 83.1509025,104.385833 80.884,101.968458 Z" id="Path" fill="#362D7E"></path> <polygon id="Path" fill="#362D7E" points="86.8801006 88.4165321 88.7080849 86.7316807 92.0718239 90.4676456 92.1448239 83.6551255 94.4117264 81.604012 94.1922673 88.3434177 102.235811 89.9549247 99.9689088 92.0060382 94.0460377 90.7607932 93.9730377 92.6652179 96.3129403 95.2290522 94.4847264 96.9139036"></polygon> <path d="M106.257469,76.9890643 L108.597371,75.0112952 C110.571585,73.3264438 112.545799,73.4729026 113.935324,75.157754 C115.470849,76.9157199 115.03216,78.9668333 112.984717,80.7250291 L108.96283,84.1678464 L101.577664,75.3775572 L108.304912,69.7369378 L109.767208,71.4951335 L105.014403,75.5240161 L106.257469,76.9890643 Z M107.573535,78.6005713 L109.401748,80.7250291 L111.522192,78.8937189 C112.399569,78.1611948 112.545799,77.4284408 111.887881,76.6228022 C111.302733,75.9633926 110.571585,75.9633926 109.694208,76.6959167 L107.573535,78.6005713 Z" id="Shape" fill="#362D7E"></path> <polygon id="Path" fill="#362D7E" points="111.595192 66.9533002 118.32244 61.6058283 119.711736 63.3640241 114.885701 67.1731034 116.348226 69.0044137 120.589343 65.6347108 121.978638 67.3929066 117.737522 70.7626094 119.200047 72.6670341 124.099082 68.7846104 125.488377 70.5428062 118.688129 75.9633926"></polygon> <polygon id="Path" fill="#362D7E" points="133.604921 64.4628102 131.850167 61.9720904 129.656494 61.5327139 129.802723 67.2464478 127.389591 69.0044137 127.243362 61.0931074 120.808572 59.6280592 123.221704 57.8698635 130.095182 59.5547149 126.950903 55.2329147 128.998346 53.7678665 132.142626 58.0896667 132.727544 51.0573434 135.140676 49.2993775 134.482528 55.8920944 141.940925 58.5292731 139.527792 60.287239 134.190069 58.3828143 133.897381 60.5803865 135.652365 63.0708765"></polygon> <polygon id="Path" fill="#362D7E" points="152.470371 51.9363263 150.349928 53.2549157 146.40127 46.882002 146.108811 55.8920944 144.061368 57.1373394 137.992267 47.3947229 140.11294 46.0761335 144.061368 52.4492771 144.353827 43.3658404 146.32827 42.1205954"></polygon> <polygon id="Path" fill="#362D7E" points="153.567208 40.8751205 150.496157 42.4866275 149.399321 40.435744 157.735094 35.967255 158.831931 38.0183685 155.760881 39.6298755 160.074997 47.6876406 157.881324 48.8597711"></polygon> </g> <path d="M257.26,56 L257.26,31.815 L252.71,31.815 L252.71,52.325 L246.2,52.325 L246.2,31.815 L241.86,31.815 L241.86,52.325 L235.385,52.325 L235.385,31.815 L230.835,31.815 L230.835,56 L257.26,56 Z M277.105,56 L277.105,52.535 L267.55,52.535 L267.55,45.43 L275.32,45.43 L275.32,42 L267.55,42 L267.55,35.245 L276.475,35.245 L276.965,31.815 L262.93,31.815 L262.93,56 L277.105,56 Z M290.79,56.525 C294.08,56.525 296.6,55.09 298.07,53.585 L295.9,50.855 C294.5,51.905 293.065,52.815 290.965,52.815 C287.535,52.815 285.015,50.225 285.015,43.855 C285.015,37.31 287.605,34.86 290.965,34.86 C292.61,34.86 294.045,35.455 295.445,36.575 L297.79,33.845 C295.795,32.2 293.8,31.29 290.72,31.29 C284.77,31.29 280.15,35.735 280.15,43.855 C280.15,52.08 284.525,56.525 290.79,56.525 Z M310.11,56 L310.11,35.49 L316.41,35.49 L316.9,31.815 L298.945,31.815 L298.945,35.49 L305.455,35.49 L305.455,56 L310.11,56 Z M329.185,56.525 C335.66,56.525 339.755,51.87 339.755,43.89 C339.755,35.805 335.66,31.29 329.185,31.29 C322.71,31.29 318.58,35.98 318.58,43.925 C318.58,52.01 322.71,56.525 329.185,56.525 Z M329.185,52.99 C325.65,52.99 323.445,50.435 323.445,43.925 C323.445,37.415 325.58,34.825 329.185,34.825 C332.825,34.825 334.89,37.415 334.89,43.89 C334.89,50.435 332.79,52.99 329.185,52.99 Z M353.02,29.61 C356.31,29.61 358.48,27.72 358.76,24.815 L356.1,24.29 C355.68,25.795 354.63,26.39 353.02,26.39 C351.41,26.39 350.43,25.795 349.975,24.29 L347.35,24.815 C347.63,27.72 349.73,29.61 353.02,29.61 Z M349.8,56 L358.025,36.575 C357.745,38.535 357.36,41.685 357.36,45.71 L357.36,56 L361.945,56 L361.945,31.815 L356.38,31.815 L348.015,51.24 C348.33,49.035 348.68,46.585 348.68,42.21 L348.68,31.815 L344.095,31.815 L344.095,56 L349.8,56 Z M240.11,106.525 C246.585,106.525 250.68,101.87 250.68,93.89 C250.68,85.805 246.585,81.29 240.11,81.29 C233.635,81.29 229.505,85.98 229.505,93.925 C229.505,102.01 233.635,106.525 240.11,106.525 Z M240.11,102.99 C236.575,102.99 234.37,100.435 234.37,93.925 C234.37,87.415 236.505,84.825 240.11,84.825 C243.75,84.825 245.815,87.415 245.815,93.89 C245.815,100.435 243.715,102.99 240.11,102.99 Z M262.51,106 C268.005,106 271.96,103.655 271.96,98.125 C271.96,93.085 268.39,90.635 262.51,90.635 L259.64,90.635 L259.64,85.42 L268.74,85.42 L269.23,81.815 L255.02,81.815 L255.02,106 L262.51,106 Z M262.37,102.535 L259.64,102.535 L259.64,93.995 L262.265,93.995 C265.415,93.995 267.095,95.255 267.095,98.195 C267.095,101.485 265.205,102.535 262.37,102.535 Z M280.22,106 L280.22,95.185 L288.83,95.185 L288.83,106 L293.485,106 L293.485,81.815 L288.83,81.815 L288.83,91.51 L280.22,91.51 L280.22,81.815 L275.6,81.815 L275.6,106 L280.22,106 Z M304.825,106 L313.05,86.575 C312.77,88.535 312.385,91.685 312.385,95.71 L312.385,106 L316.97,106 L316.97,81.815 L311.405,81.815 L303.04,101.24 C303.355,99.035 303.705,96.585 303.705,92.21 L303.705,81.815 L299.12,81.815 L299.12,106 L304.825,106 Z M327.26,106 L327.26,95.185 L335.87,95.185 L335.87,106 L340.525,106 L340.525,81.815 L335.87,81.815 L335.87,91.51 L327.26,91.51 L327.26,81.815 L322.64,81.815 L322.64,106 L327.26,106 Z M355.47,106.525 C358.76,106.525 361.28,105.09 362.75,103.585 L360.58,100.855 C359.18,101.905 357.745,102.815 355.645,102.815 C352.215,102.815 349.695,100.225 349.695,93.855 C349.695,87.31 352.285,84.86 355.645,84.86 C357.29,84.86 358.725,85.455 360.125,86.575 L362.47,83.845 C360.475,82.2 358.48,81.29 355.4,81.29 C349.45,81.29 344.83,85.735 344.83,93.855 C344.83,102.08 349.205,106.525 355.47,106.525 Z M370.66,106 L370.66,95.115 L373.565,95.115 L379.235,106 L384.415,106 L377.45,92.945 L383.785,81.815 L379.095,81.815 L373.635,91.58 L370.66,91.58 L370.66,81.815 L366.04,81.815 L366.04,106 L370.66,106 Z M393.025,106 L401.25,86.575 C400.97,88.535 400.585,91.685 400.585,95.71 L400.585,106 L405.17,106 L405.17,81.815 L399.605,81.815 L391.24,101.24 C391.555,99.035 391.905,96.585 391.905,92.21 L391.905,81.815 L387.32,81.815 L387.32,106 L393.025,106 Z M419.765,79.61 C423.055,79.61 425.225,77.72 425.505,74.815 L422.845,74.29 C422.425,75.795 421.375,76.39 419.765,76.39 C418.155,76.39 417.175,75.795 416.72,74.29 L414.095,74.815 C414.375,77.72 416.475,79.61 419.765,79.61 Z M416.545,106 L424.77,86.575 C424.49,88.535 424.105,91.685 424.105,95.71 L424.105,106 L428.69,106 L428.69,81.815 L423.125,81.815 L414.76,101.24 C415.075,99.035 415.425,96.585 415.425,92.21 L415.425,81.815 L410.84,81.815 L410.84,106 L416.545,106 Z M232.62,156 L234.125,150.4 L242.14,150.4 L243.645,156 L248.545,156 L241.055,131.815 L235.35,131.815 L227.825,156 L232.62,156 Z M241.195,146.9 L235.035,146.9 L238.115,135.35 L241.195,146.9 Z M259.99,156 L259.99,135.49 L266.29,135.49 L266.78,131.815 L248.825,131.815 L248.825,135.49 L255.335,135.49 L255.335,156 L259.99,156 Z M279.065,156.525 C285.54,156.525 289.635,151.87 289.635,143.89 C289.635,135.805 285.54,131.29 279.065,131.29 C272.59,131.29 268.46,135.98 268.46,143.925 C268.46,152.01 272.59,156.525 279.065,156.525 Z M279.065,152.99 C275.53,152.99 273.325,150.435 273.325,143.925 C273.325,137.415 275.46,134.825 279.065,134.825 C282.705,134.825 284.77,137.415 284.77,143.89 C284.77,150.435 282.67,152.99 279.065,152.99 Z M297.23,156 L297.825,146.025 C298.035,142.56 298.105,139.235 297.965,135.98 L302.655,153.375 L307.03,153.375 L311.44,136.015 C311.37,138.57 311.545,142.315 311.755,145.885 L312.385,156 L316.9,156 L315.01,131.815 L308.99,131.815 L304.93,148.755 L300.625,131.815 L294.675,131.815 L292.75,156 L297.23,156 Z M325.965,156 L325.965,145.185 L334.575,145.185 L334.575,156 L339.23,156 L339.23,131.815 L334.575,131.815 L334.575,141.51 L325.965,141.51 L325.965,131.815 L321.345,131.815 L321.345,156 L325.965,156 Z M352.005,156 C357.5,156 361.455,153.655 361.455,147.985 C361.455,142.805 357.885,140.355 351.935,140.355 L349.485,140.355 L349.485,131.815 L344.865,131.815 L344.865,156 L352.005,156 Z M368.455,156 L368.455,131.815 L363.835,131.815 L363.835,156 L368.455,156 Z M351.865,152.535 L349.485,152.535 L349.485,143.715 L351.69,143.715 C354.91,143.715 356.59,144.975 356.59,148.055 C356.59,151.485 354.7,152.535 351.865,152.535 Z M383.05,129.61 C386.34,129.61 388.51,127.72 388.79,124.815 L386.13,124.29 C385.71,125.795 384.66,126.39 383.05,126.39 C381.44,126.39 380.46,125.795 380.005,124.29 L377.38,124.815 C377.66,127.72 379.76,129.61 383.05,129.61 Z M379.83,156 L388.055,136.575 C387.775,138.535 387.39,141.685 387.39,145.71 L387.39,156 L391.975,156 L391.975,131.815 L386.41,131.815 L378.045,151.24 C378.36,149.035 378.71,146.585 378.71,142.21 L378.71,131.815 L374.125,131.815 L374.125,156 L379.83,156 Z M234.09,206 L234.685,196.025 C234.895,192.56 234.965,189.235 234.825,185.98 L239.515,203.375 L243.89,203.375 L248.3,186.015 C248.23,188.57 248.405,192.315 248.615,195.885 L249.245,206 L253.76,206 L251.87,181.815 L245.85,181.815 L241.79,198.755 L237.485,181.815 L231.535,181.815 L229.61,206 L234.09,206 Z M259.99,206 L261.495,200.4 L269.51,200.4 L271.015,206 L275.915,206 L268.425,181.815 L262.72,181.815 L255.195,206 L259.99,206 Z M268.565,196.9 L262.405,196.9 L265.485,185.35 L268.565,196.9 Z M283.23,206 L283.23,197.565 L286.065,197.565 C291.525,197.565 295.55,195.08 295.55,189.515 C295.55,184.3 291.84,181.815 285.75,181.815 L278.61,181.815 L278.61,206 L283.23,206 Z M285.715,194.1 L283.23,194.1 L283.23,185.21 L285.715,185.21 C288.865,185.21 290.72,186.47 290.72,189.515 C290.72,193.05 288.795,194.1 285.715,194.1 Z M303.915,206 L303.915,197.565 L306.75,197.565 C312.21,197.565 316.235,195.08 316.235,189.515 C316.235,184.3 312.525,181.815 306.435,181.815 L299.295,181.815 L299.295,206 L303.915,206 Z M306.4,194.1 L303.915,194.1 L303.915,185.21 L306.4,185.21 C309.55,185.21 311.405,186.47 311.405,189.515 C311.405,193.05 309.48,194.1 306.4,194.1 Z M321.765,206 L323.27,200.4 L331.285,200.4 L332.79,206 L337.69,206 L330.2,181.815 L324.495,181.815 L316.97,206 L321.765,206 Z M330.34,196.9 L324.18,196.9 L327.26,185.35 L330.34,196.9 Z M354.455,207.295 L354.455,204.495 C361.315,204.25 365.83,200.89 365.83,193.75 C365.83,186.925 361.63,183.46 354.455,183.145 L354.455,180.555 L349.94,180.555 L349.94,183.11 C343.115,183.355 338.6,186.68 338.6,193.855 C338.6,200.645 342.8,204.11 349.94,204.46 L349.94,207.295 L354.455,207.295 Z M350.115,201.415 C345.53,201.17 343.325,198.825 343.325,193.855 C343.325,188.78 345.46,186.47 350.115,186.155 L350.115,201.415 Z M354.28,201.415 L354.28,186.19 C358.9,186.435 361.105,188.745 361.105,193.75 C361.105,198.86 358.97,201.1 354.28,201.415 Z M378.99,206.525 C385.465,206.525 389.56,201.87 389.56,193.89 C389.56,185.805 385.465,181.29 378.99,181.29 C372.515,181.29 368.385,185.98 368.385,193.925 C368.385,202.01 372.515,206.525 378.99,206.525 Z M378.99,202.99 C375.455,202.99 373.25,200.435 373.25,193.925 C373.25,187.415 375.385,184.825 378.99,184.825 C382.63,184.825 384.695,187.415 384.695,193.89 C384.695,200.435 382.595,202.99 378.99,202.99 Z M398.52,206 L398.52,195.185 L407.13,195.185 L407.13,206 L411.785,206 L411.785,181.815 L407.13,181.815 L407.13,191.51 L398.52,191.51 L398.52,181.815 L393.9,181.815 L393.9,206 L398.52,206 Z" id="ШЕСТОЙОБНИНСКИЙАТОМНЫЙМАРРАФОН" fill="#362D7E" fill-rule="nonzero"></path> </g> </svg> 