<?xml version="1.0" encoding="UTF-8" standalone="no"?><!DOCTYPE svg PUBLIC "-//W3C//DTD SVG 1.1//EN" "http://www.w3.org/Graphics/SVG/1.1/DTD/svg11.dtd"><svg width="100%" height="100%" viewBox="0 0 1047 525" version="1.1" xmlns="http://www.w3.org/2000/svg" xmlns:xlink="http://www.w3.org/1999/xlink" xml:space="preserve" xmlns:serif="http://www.serif.com/" style="fill-rule:evenodd;clip-rule:evenodd;stroke-linejoin:round;stroke-miterlimit:2;"><path d="M400.406,3.015l-0,143.155l-25.025,-0l-0,-120.917l-24.084,-0l-44.383,120.917l-26.521,-0l54.992,-143.155l65.021,0Z" style="fill:#00f;fill-rule:nonzero;"/><path d="M119.607,2.795l0,143.155l-25.033,-0l0,-120.117l-68.375,-0l0,120.117l-25.037,-0l-0,-143.155l118.445,0Z" style="fill:#00f;fill-rule:nonzero;"/><path d="M211.417,125.708c-6.646,0 -12.75,-1.183 -18.271,-3.537c-5.513,-2.358 -10.442,-5.883 -14.746,-10.558c-8.654,-9.409 -13.038,-21.938 -13.038,-37.238c0,-15.304 4.384,-27.833 13.038,-37.229c8.621,-9.363 19.725,-14.108 33.017,-14.108c13.283,-0 24.395,4.745 33.004,14.108c8.658,9.396 13.041,21.925 13.041,37.229c0,15.3 -4.383,27.829 -13.041,37.238c-8.609,9.35 -19.721,14.095 -33.004,14.095m65.987,-80.754c-3.387,-8.912 -8.458,-16.879 -15.175,-23.862c-13.458,-13.992 -30.558,-21.092 -50.812,-21.092c-20.267,0 -37.367,7.1 -50.825,21.092c-13.442,13.979 -20.255,31.9 -20.255,53.283c0,21.392 6.813,39.313 20.255,53.283c13.458,13.988 30.558,21.088 50.825,21.088c20.254,-0 37.354,-7.1 50.812,-21.088c13.446,-13.97 20.267,-31.891 20.267,-53.283c-0,-10.696 -1.704,-20.525 -5.092,-29.421" style="fill:#00f;fill-rule:nonzero;"/><path d="M525.335,2.916l-58.017,143.354l-25.208,-0l19.475,-48.563l-47.067,-94.791l27.809,-0l31.625,63.854l25.675,-63.854l25.708,-0Z" style="fill:#00f;fill-rule:nonzero;"/><path d="M143.354,188.402l0,143.154l-23.829,-0l-0,-88.65l-3.825,10.487l-32.463,78.163l-23.12,-0l-32.434,-78.096c-1.521,-4.083 -2.8,-7.55 -3.854,-10.417l0,88.513l-23.829,-0l-0,-143.154l25.467,-0l46.216,115.383l46.209,-115.383l25.462,-0Z" style="fill:#00f;fill-rule:nonzero;"/><path d="M370.513,258.24l-36.971,-0l0,-47.6l36.971,-0c9.096,-0 16.079,2.146 20.792,6.392c4.708,4.245 7.004,9.945 7.004,17.416c-0,7.459 -2.296,13.154 -7.004,17.4c-4.713,4.246 -11.696,6.392 -20.792,6.392m38.654,-57.725c-9.337,-8.042 -22.067,-12.113 -37.854,-12.113l-62.796,0l0,143.155l25.025,-0l0,-51.08l37.771,0c15.787,0 28.517,-4.07 37.854,-12.108c9.396,-8.112 14.167,-19.525 14.167,-33.921c-0,-14.408 -4.771,-25.825 -14.167,-33.933" style="fill:#00f;fill-rule:nonzero;"/><path d="M628.828,296.153l-0.058,-0l-0,-72.346l0.058,0c9.779,0 18.075,3.258 24.662,9.688c6.567,6.416 9.909,15.325 9.909,26.483c-0,11.162 -3.363,20.071 -10,26.487c-6.659,6.425 -14.921,9.688 -24.571,9.688m-25.092,-0l-0.046,-0c-9.675,-0 -17.879,-3.25 -24.387,-9.675c-6.508,-6.417 -9.8,-15.325 -9.8,-26.5c-0,-11.171 3.292,-20.079 9.8,-26.496c6.508,-6.417 14.712,-9.675 24.387,-9.675l0.046,0l0,72.346Zm66.892,-78.471c-11.696,-10.612 -25.779,-16.033 -41.858,-16.112l-0,-13.167l-25.034,-0l0,13.167c-15.987,0.079 -29.979,5.5 -41.579,16.125c-11.737,10.741 -17.679,24.966 -17.679,42.283c-0,17.325 5.942,31.558 17.679,42.287c11.6,10.63 25.592,16.046 41.579,16.125l0,13.167l25.034,0l-0,-13.167c16.091,-0.07 30.162,-5.495 41.858,-16.112c11.808,-10.742 17.796,-24.967 17.796,-42.3c-0,-17.317 -5.988,-31.55 -17.796,-42.296" style="fill:#00f;fill-rule:nonzero;"/><path d="M774.13,311.314c-6.645,0 -12.75,-1.183 -18.258,-3.537c-5.512,-2.359 -10.454,-5.884 -14.758,-10.559c-8.654,-9.408 -13.038,-21.937 -13.038,-37.237c0,-15.304 4.384,-27.834 13.038,-37.229c8.621,-9.359 19.721,-14.109 33.016,-14.109c13.284,0 24.396,4.75 33.005,14.109c8.654,9.395 13.041,21.925 13.041,37.229c0,15.312 -4.387,27.829 -13.041,37.237c-8.609,9.35 -19.721,14.096 -33.005,14.096m65.988,-80.754c-3.388,-8.908 -8.458,-16.879 -15.175,-23.863c-13.458,-13.991 -30.558,-21.091 -50.813,-21.091c-20.266,-0 -37.354,7.1 -50.825,21.091c-13.445,13.98 -20.254,31.9 -20.254,53.284c0,21.391 6.809,39.316 20.254,53.283c13.459,13.992 30.559,21.092 50.825,21.092c20.255,-0 37.355,-7.1 50.813,-21.092c13.446,-13.967 20.267,-31.892 20.267,-53.283c-0,-10.696 -1.705,-20.525 -5.092,-29.421" style="fill:#00f;fill-rule:nonzero;"/><path d="M982.458,188.402l-0,143.154l-25.025,-0l-0,-61.45l-69.696,-0l-0,61.45l-25.021,-0l-0,-143.154l25.021,-0l-0,58.666l69.696,0l-0,-58.666l25.024,-0Z" style="fill:#00f;fill-rule:nonzero;"/><path d="M518.23,369.184l-63.087,155.129l-25.079,-0l63.075,-155.129l25.091,-0Z" style="fill:#f00;fill-rule:nonzero;"/><path d="M672.967,482.188l-0.846,1.392c-7.821,12.671 -16.592,22.183 -26.079,28.283c-9.559,6.138 -21.821,9.259 -36.463,9.259c-20.358,-0 -37.392,-7.03 -50.65,-20.892c-13.225,-13.842 -19.929,-31.838 -19.929,-53.483c-0,-21.392 6.95,-39.325 20.65,-53.292c13.712,-13.979 30.846,-21.079 50.925,-21.079c14.096,-0 26.696,3.408 37.438,10.15c10.754,6.729 18.758,15.808 23.808,26.996l0.591,1.3l-19.954,14.37l-0.929,-1.783c-9.746,-18.842 -23.271,-27.996 -41.358,-27.996c-12.725,0 -23.713,4.909 -32.634,14.604c-8.966,9.738 -13.512,22.088 -13.512,36.73c-0,14.666 4.417,27.02 13.129,36.754c8.654,9.675 19.7,14.579 32.821,14.579c18.629,-0 32.55,-9.15 42.562,-28.004l0.93,-1.75l19.5,13.862Z" style="fill:#f00;fill-rule:nonzero;"/><path d="M889.326,496.086l-29.596,-0l0,-42.413l29.596,0c9.004,0 16.009,1.834 20.8,5.442c4.7,3.55 6.984,8.7 6.984,15.767c-0,7.075 -2.284,12.225 -6.984,15.775c-4.791,3.608 -11.783,5.429 -20.8,5.429m38.467,-53.179c-9.404,-7.609 -21.808,-11.463 -36.829,-11.463l-31.234,0l0,-34.037l63.725,-0l0,-22.238l-88.745,0l-0,143.154l56.587,0c14.133,0 26.233,-3.954 35.975,-11.75c9.875,-7.9 14.875,-18.491 14.875,-31.483c0,-13.667 -4.825,-24.492 -14.354,-32.183" style="fill:#f00;fill-rule:nonzero;"/><path d="M807.606,375.169l0,143.154l-25.033,0l-0,-120.112l-68.375,-0l-0,120.112l-25.038,0l0,-143.154l118.446,0Z" style="fill:#f00;fill-rule:nonzero;"/><path d="M958.485,369.184l63.087,155.129l25.08,-0l-63.075,-155.129l-25.092,-0Z" style="fill:#f00;fill-rule:nonzero;"/><path d="M203.268,279.946l19.7,-51.266c1.171,-3.017 2.25,-5.917 3.213,-8.688l3.108,8.688l19.713,51.266l-45.734,0Zm34.813,-91.546l-23.909,0l-57.262,143.159l26.521,-0l11.287,-29.375l62.829,-0l11.288,29.375l26.512,-0l-57.266,-143.159Z" style="fill:#00f;fill-rule:nonzero;"/><path d="M457.669,279.946l19.7,-51.266c1.171,-3.017 2.25,-5.917 3.213,-8.688l3.108,8.688l19.712,51.266l-45.733,0Zm34.813,-91.546l-23.909,0l-57.258,143.159l26.517,-0l11.287,-29.375l62.829,-0l11.292,29.375l26.508,-0l-57.266,-143.159Z" style="fill:#00f;fill-rule:nonzero;"/><path d="M154.851,401.186l5.904,4.242c-2.52,3.858 -5.125,6.617 -7.795,8.279c-2.675,1.663 -6.113,2.492 -10.317,2.492c-5.958,-0 -10.85,-1.925 -14.667,-5.788c-3.821,-3.858 -5.733,-8.879 -5.733,-15.071c-0,-6.15 1.958,-11.166 5.875,-15.041c3.917,-3.879 8.854,-5.817 14.812,-5.817c4.088,0 7.7,0.967 10.834,2.892c3.129,1.933 5.383,4.462 6.758,7.596l-6.129,4.412c-2.483,-5.275 -6.383,-7.908 -11.692,-7.908c-3.629,-0 -6.687,1.271 -9.166,3.812c-2.484,2.538 -3.725,5.892 -3.725,10.054c-0,4.05 1.241,7.375 3.725,9.971c2.479,2.6 5.537,3.896 9.166,3.896c5.234,0 9.288,-2.671 12.15,-8.021" style="fill:#00f;fill-rule:nonzero;"/><path d="M166.542,415.397l-0,-40.112l27.679,-0l-0,6.762l-20.117,0l0,9.225l18.513,0l-0,6.763l-18.513,-0l0,10.6l20.288,-0l-0,6.762l-27.85,0Z" style="fill:#00f;fill-rule:nonzero;"/><path d="M208.375,397.518l-0,11.117l8.767,0c4.737,0 7.108,-1.85 7.108,-5.558c-0,-3.705 -2.371,-5.559 -7.108,-5.559l-8.767,0Zm-0,-15.471l-0,8.709l8.367,-0c2.1,-0 3.637,-0.354 4.612,-1.058c0.975,-0.709 1.463,-1.809 1.463,-3.296c-0,-1.488 -0.488,-2.588 -1.463,-3.296c-0.975,-0.704 -2.512,-1.059 -4.612,-1.059l-8.367,0Zm-7.567,33.351l0,-40.113l16.442,0c4.071,0 7.221,0.863 9.446,2.587c2.225,1.726 3.341,4.138 3.341,7.246c0,1.925 -0.516,3.613 -1.545,5.067c-1.03,1.454 -2.334,2.575 -3.905,3.371c4.813,1.921 7.225,5.192 7.225,9.808c0,3.667 -1.366,6.592 -4.095,8.767c-2.734,2.179 -6.105,3.267 -10.117,3.267l-16.792,-0Z" style="fill:#00f;fill-rule:nonzero;"/><path d="M237.829,415.397l-0,-40.112l27.679,-0l-0,6.762l-20.117,0l0,9.225l18.513,0l-0,6.763l-18.513,-0l0,10.6l20.288,-0l-0,6.762l-27.85,0Z" style="fill:#00f;fill-rule:nonzero;"/><path d="M279.662,382.046l0,12.608l10.429,0c2.559,0 4.479,-0.562 5.759,-1.692c1.279,-1.125 1.92,-2.666 1.92,-4.612c0,-1.95 -0.641,-3.488 -1.92,-4.613c-1.28,-1.129 -3.2,-1.691 -5.759,-1.691l-10.429,-0Zm-7.562,33.35l-0,-40.113l18.22,0c4.621,0 8.28,1.138 10.975,3.409c2.692,2.275 4.042,5.495 4.042,9.658c0,4.162 -1.35,7.383 -4.042,9.654c-2.695,2.275 -6.354,3.413 -10.975,3.413l-10.658,-0l0,13.979l-7.562,-0Z" style="fill:#00f;fill-rule:nonzero;"/><path d="M311.409,415.397l-0,-40.112l7.562,-0l0,16.158l17.538,0l-0,-16.158l7.562,-0l0,40.112l-7.562,0l-0,-16.962l-17.538,-0l0,16.962l-7.562,0Z" style="fill:#00f;fill-rule:nonzero;"/><path d="M365.907,388.522l-3.667,9.629l10.313,-0l-3.667,-9.629c-0.496,-1.3 -0.991,-2.75 -1.491,-4.355l-1.488,4.355Zm-18.337,26.875l16.216,-40.113l7.221,0l16.217,40.113l-8.079,-0l-4.013,-10.488l-15.475,0l-4.008,10.488l-8.079,-0Z" style="fill:#00f;fill-rule:nonzero;"/><path d="M413.984,392.475l0,-10.43l-9.567,0c-4.47,0 -6.708,1.742 -6.708,5.217c0,3.475 2.238,5.213 6.709,5.213l9.566,-0Zm-6.416,6.762l-9.284,16.158l-8.654,0l9.683,-16.858c-6.112,-2.183 -9.166,-6.133 -9.166,-11.842c-0,-3.5 1.279,-6.275 3.837,-8.329c2.559,-2.054 6.038,-3.083 10.434,-3.083l17.129,-0l-0,40.112l-7.563,0l0,-16.158l-6.417,0Z" style="fill:#00f;fill-rule:nonzero;"/><path d="M154.851,462.671l5.904,4.242c-2.52,3.858 -5.125,6.617 -7.795,8.279c-2.675,1.663 -6.113,2.496 -10.317,2.496c-5.958,-0 -10.85,-1.929 -14.667,-5.792c-3.821,-3.854 -5.733,-8.879 -5.733,-15.071c-0,-6.15 1.958,-11.166 5.875,-15.041c3.917,-3.875 8.854,-5.817 14.812,-5.817c4.088,0 7.7,0.967 10.834,2.892c3.129,1.933 5.383,4.462 6.758,7.596l-6.129,4.412c-2.483,-5.275 -6.383,-7.908 -11.692,-7.908c-3.629,-0 -6.687,1.271 -9.166,3.812c-2.484,2.538 -3.725,5.892 -3.725,10.054c-0,4.05 1.241,7.375 3.725,9.971c2.479,2.6 5.537,3.896 9.166,3.896c5.234,0 9.288,-2.671 12.15,-8.021" style="fill:#00f;fill-rule:nonzero;"/><path d="M163.848,443.76l-0,-6.991l32.092,-0l-0,6.991l-12.263,0l0,33.121l-7.567,0l0,-33.121l-12.262,0Z" style="fill:#00f;fill-rule:nonzero;"/><path d="M208.21,466.94c2.45,2.504 5.555,3.754 9.305,3.754c3.75,-0 6.854,-1.25 9.304,-3.754c2.45,-2.5 3.675,-5.875 3.675,-10.113c-0,-4.242 -1.225,-7.612 -3.675,-10.117c-2.45,-2.5 -5.554,-3.75 -9.304,-3.75c-3.75,0 -6.855,1.25 -9.305,3.75c-2.45,2.505 -3.675,5.875 -3.675,10.117c0,4.238 1.225,7.613 3.675,10.113m24.03,-25.042c3.879,3.954 5.82,8.929 5.82,14.929c0,5.996 -1.941,10.975 -5.82,14.925c-3.884,3.954 -8.792,5.933 -14.725,5.933c-5.934,0 -10.842,-1.979 -14.721,-5.933c-3.884,-3.95 -5.821,-8.929 -5.821,-14.925c-0,-6 1.937,-10.975 5.821,-14.929c3.879,-3.954 8.787,-5.933 14.721,-5.933c5.933,-0 10.841,1.979 14.725,5.933" style="fill:#00f;fill-rule:nonzero;"/><path d="M239.871,476.49l1.375,-6.83c0.763,0.421 1.584,0.634 2.463,0.634c1.529,-0 2.387,-0.842 2.583,-2.525l3.513,-31l25.445,-0l0,40.112l-7.566,0l-0,-33.35l-11.238,0l-2.946,26.179c-0.262,2.371 -1.133,4.23 -2.608,5.563c-1.479,1.342 -3.3,2.008 -5.462,2.008c-2.255,0 -4.109,-0.262 -5.559,-0.791" style="fill:#00f;fill-rule:nonzero;"/><path d="M316.338,436.77l0,40.112l-7.221,0l0,-28.825l-1.725,3.155l-16.783,25.67l-7.567,0l0,-40.112l7.221,-0l0,28.65l1.725,-3.15l16.784,-25.5l7.566,-0Z" style="fill:#00f;fill-rule:nonzero;"/><path d="M324.303,476.882l0,-40.112l7.563,-0l-0,33.12l16.104,0l0,-33.12l7.567,-0l-0,33.12l2.866,0l0,13.642l-7.225,0l0,-6.65l-26.875,0Z" style="fill:#00f;fill-rule:nonzero;"/><path d="M380.632,450.006l-3.666,9.629l10.316,0l-3.67,-9.629c-0.496,-1.3 -0.992,-2.75 -1.488,-4.354l-1.492,4.354Zm-18.337,26.875l16.217,-40.112l7.22,-0l16.217,40.112l-8.079,0l-4.013,-10.483l-15.47,-0l-4.013,10.483l-8.079,0Z" style="fill:#00f;fill-rule:nonzero;"/></svg>